<?xml version="1.0" encoding="UTF-8" standalone="no"?>
<!-- Created with Inkscape (http://www.inkscape.org/) -->

<svg
   xmlns:dc="http://purl.org/dc/elements/1.1/"
   xmlns:cc="http://creativecommons.org/ns#"
   xmlns:rdf="http://www.w3.org/1999/02/22-rdf-syntax-ns#"
   xmlns:svg="http://www.w3.org/2000/svg"
   xmlns="http://www.w3.org/2000/svg"
   xmlns:sodipodi="http://sodipodi.sourceforge.net/DTD/sodipodi-0.dtd"
   xmlns:inkscape="http://www.inkscape.org/namespaces/inkscape"
   width="210mm"
   height="297mm"
   id="svg4512"
   version="1.1"
   inkscape:version="0.47 r22583"
   sodipodi:docname="Nieuw document 5">
  <defs
     id="defs4514">
    <inkscape:perspective
       sodipodi:type="inkscape:persp3d"
       inkscape:vp_x="0 : 526.18109 : 1"
       inkscape:vp_y="0 : 1000 : 0"
       inkscape:vp_z="744.09448 : 526.18109 : 1"
       inkscape:persp3d-origin="372.04724 : 350.78739 : 1"
       id="perspective4520" />
    <inkscape:perspective
       id="perspective4470"
       inkscape:persp3d-origin="0.5 : 0.33333333 : 1"
       inkscape:vp_z="1 : 0.5 : 1"
       inkscape:vp_y="0 : 1000 : 0"
       inkscape:vp_x="0 : 0.5 : 1"
       sodipodi:type="inkscape:persp3d" />
    <clipPath
       clipPathUnits="userSpaceOnUse"
       id="clipPath3099">
      <path
         d="m 124.8,561.451 105.84,0 0,-73.411 -105.84,0 0,73.411 z"
         id="path3101" />
    </clipPath>
  </defs>
  <sodipodi:namedview
     id="base"
     pagecolor="#ffffff"
     bordercolor="#666666"
     borderopacity="1.0"
     inkscape:pageopacity="0.0"
     inkscape:pageshadow="2"
     inkscape:zoom="1.3519099"
     inkscape:cx="224.8064"
     inkscape:cy="866.20886"
     inkscape:document-units="px"
     inkscape:current-layer="layer1"
     showgrid="false"
     inkscape:window-width="1341"
     inkscape:window-height="762"
     inkscape:window-x="4"
     inkscape:window-y="52"
     inkscape:window-maximized="0" />
  <metadata
     id="metadata4517">
    <rdf:RDF>
      <cc:Work
         rdf:about="">
        <dc:format>image/svg+xml</dc:format>
        <dc:type
           rdf:resource="http://purl.org/dc/dcmitype/StillImage" />
        <dc:title></dc:title>
      </cc:Work>
    </rdf:RDF>
  </metadata>
  <g
     inkscape:label="Laag 1"
     inkscape:groupmode="layer"
     id="layer1">
    <path
       id="path3057"
       style="fill:#ffffff;fill-opacity:1;fill-rule:nonzero;stroke:none"
       d="m 213.69331,214.89734 132.3,0 0,-91.8 -132.3,0 0,91.8 z" />
    <path
       id="path3063"
       style="fill:none;stroke:#000000;stroke-width:0.75;stroke-linecap:round;stroke-linejoin:round;stroke-miterlimit:10;stroke-opacity:1;stroke-dasharray:none"
       d="m 245.49701,141.80734 0,9.405 m 0,27.18375 0,-9.21" />
    <path
       id="path3065"
       style="fill:#ffffff;fill-opacity:1;fill-rule:evenodd;stroke:none"
       d="m 247.47081,180.07859 c 0,0.0338 0,0.065 0,0.095 0,1.19875 -0.9738,2.1725 -2.1725,2.1725 -1.2,0 -2.1725,-0.97375 -2.1725,-2.1725 0,-1.19875 0.9725,-2.17375 2.1725,-2.17375 1.1625,0 2.12,0.91875 2.1712,2.07875" />
    <path
       id="path3067"
       style="fill:none;stroke:#000000;stroke-width:0.59999996;stroke-linecap:round;stroke-linejoin:round;stroke-miterlimit:10;stroke-opacity:1;stroke-dasharray:none"
       d="m 247.47081,180.07859 c 0,0.0338 0,0.065 0,0.095 0,1.19875 -0.9738,2.1725 -2.1725,2.1725 -1.2,0 -2.1725,-0.97375 -2.1725,-2.1725 0,-1.19875 0.9725,-2.17375 2.1725,-2.17375 1.1625,0 2.12,0.91875 2.1712,2.07875" />
    <path
       id="path3069"
       style="fill:#ffffff;fill-opacity:1;fill-rule:evenodd;stroke:none"
       d="m 247.47201,140.05484 c 0,1.1975 -0.9737,2.17 -2.1725,2.17 -1.2,0 -2.1725,-0.9725 -2.1725,-2.17 0,-1.19875 0.9725,-2.175 2.1725,-2.175 1.1988,0 2.1725,0.97625 2.1725,2.175" />
    <path
       id="path3071"
       style="fill:none;stroke:#000000;stroke-width:0.59999996;stroke-linecap:round;stroke-linejoin:round;stroke-miterlimit:10;stroke-opacity:1;stroke-dasharray:none"
       d="m 247.47201,140.05484 c 0,1.1975 -0.9737,2.17 -2.1725,2.17 -1.2,0 -2.1725,-0.9725 -2.1725,-2.17 0,-1.19875 0.9725,-2.175 2.1725,-2.175 1.1988,0 2.1725,0.97625 2.1725,2.175" />
    <path
       id="path3073"
       style="fill:none;stroke:#000000;stroke-width:0.9375;stroke-linecap:round;stroke-linejoin:round;stroke-miterlimit:10;stroke-opacity:1;stroke-dasharray:none"
       d="m 316.40451,134.02859 0,52.73625 m -38.7137,-52.73625 0,52.73625 m -54.7113,-52.73625 93.425,0 m 0,52.73625 -93.425,0 m 38.9113,-52.73625 0,52.73625 m -38.9113,0 0,-52.73625" />
    <path
       id="path3075"
       style="fill:none;stroke:#000000;stroke-width:0.75;stroke-linecap:round;stroke-linejoin:round;stroke-miterlimit:10;stroke-opacity:1;stroke-dasharray:none"
       d="m 296.06081,140.22609 0,40.145" />
    <path
       id="path3077"
       style="fill:#ffffff;fill-opacity:1;fill-rule:evenodd;stroke:none"
       d="m 293.69201,180.46109 c 0,-0.0288 0,-0.0588 0,-0.09 0,-1.1975 1.06,-2.1725 2.37,-2.1725 1.3088,0 2.37,0.975 2.37,2.1725 0,1.19875 -1.0612,2.1725 -2.37,2.1725 -1.2712,0 -2.3162,-0.9175 -2.3687,-2.0825" />
    <path
       id="path3079"
       style="fill:none;stroke:#000000;stroke-width:0.59999996;stroke-linecap:round;stroke-linejoin:round;stroke-miterlimit:10;stroke-opacity:1;stroke-dasharray:none"
       d="m 293.69201,180.46109 c 0,-0.0288 0,-0.0588 0,-0.09 0,-1.1975 1.06,-2.1725 2.37,-2.1725 1.3088,0 2.37,0.975 2.37,2.1725 0,1.19875 -1.0612,2.1725 -2.37,2.1725 -1.2712,0 -2.3162,-0.9175 -2.3687,-2.0825" />
    <path
       id="path3081"
       style="fill:#ffffff;fill-opacity:1;fill-rule:evenodd;stroke:none"
       d="m 293.69331,140.16109 c 0.051,-1.16375 1.0962,-2.08125 2.3675,-2.08125 1.3087,0 2.37,0.97125 2.37,2.17 0,1.19875 -1.0613,2.1725 -2.37,2.1725 -1.31,0 -2.37,-0.97375 -2.37,-2.1725 0,-0.0287 0,-0.0587 0,-0.0887" />
    <path
       id="path3083"
       style="fill:none;stroke:#000000;stroke-width:0.59999996;stroke-linecap:round;stroke-linejoin:round;stroke-miterlimit:10;stroke-opacity:1;stroke-dasharray:none"
       d="m 293.69331,140.16109 c 0.051,-1.16375 1.0962,-2.08125 2.3675,-2.08125 1.3087,0 2.37,0.97125 2.37,2.17 0,1.19875 -1.0613,2.1725 -2.37,2.1725 -1.31,0 -2.37,-0.97375 -2.37,-2.1725 0,-0.0287 0,-0.0587 0,-0.0887" />
    <path
       id="path3085"
       style="fill:none;stroke:#000000;stroke-width:0.75;stroke-linecap:round;stroke-linejoin:round;stroke-miterlimit:10;stroke-opacity:1;stroke-dasharray:none"
       d="m 233.05331,158.32234 12.4437,-7.11 m -12.4437,10.66625 12.4437,7.11" />
    <path
       id="path3087"
       style="fill:none;stroke:#000000;stroke-width:0.29999998;stroke-linecap:round;stroke-linejoin:round;stroke-miterlimit:10;stroke-opacity:1;stroke-dasharray:none"
       d="m 241.34831,166.61984 -3.7525,0 1.7787,-3.35875 1.9738,3.35875 z" />
    <path
       id="path3089"
       style="fill:#000000;fill-opacity:1;fill-rule:evenodd;stroke:none"
       d="m 241.34831,166.61984 -3.7525,0 1.7787,-3.35875 1.9738,3.35875" />
    <path
       id="path3091"
       style="fill:none;stroke:#000000;stroke-width:0.29999998;stroke-linecap:round;stroke-linejoin:round;stroke-miterlimit:10;stroke-opacity:1;stroke-dasharray:none"
       d="m 241.34831,166.61984 -3.7525,0 1.7787,-3.35875 1.9738,3.35875 z" />
    <path
       id="path3093"
       style="fill:#000000;fill-opacity:1;fill-rule:nonzero;stroke:none"
       d="m 232.90451,165.03859 0.8905,0 0,-9.87475 -0.8905,0 0,9.87475 z" />
    <g
       transform="matrix(1.25,0,0,-1.25,57.693261,824.94736)"
       id="g3095">
      <g
         clip-path="url(#clipPath3099)"
         id="g3097">
        <path
           id="path3103"
           style="fill:none;stroke:#000000;stroke-width:0.47999999;stroke-linecap:round;stroke-linejoin:round;stroke-miterlimit:10;stroke-opacity:1;stroke-dasharray:none"
           d="m 140.169,527.927 0.7124,0 0,7.8998 -0.7124,0 0,-7.8998 z" />
        <path
           id="path3105"
           style="fill:none;stroke:#000000;stroke-width:1;stroke-linecap:round;stroke-linejoin:round;stroke-miterlimit:10;stroke-opacity:1;stroke-dasharray:none"
           d="m 216.765,518.763 -8.374,-16.907 m 0,59.095 8.374,-16.906 m 0,0 0,-25.282 m -91.488,-16.907 0,59.095 83.114,0 m -83.114,-59.095 83.114,0" />
      </g>
    </g>
    <path
       id="path3107"
       style="fill:none;stroke:#000000;stroke-width:0.29999998;stroke-linecap:round;stroke-linejoin:round;stroke-miterlimit:10;stroke-opacity:1;stroke-dasharray:none"
       d="m 296.22831,164.89234 0,-0.2075 m -0.4138,-8.50125 0,0.83" />
    <path
       id="path3109"
       style="fill:none;stroke:#000000;stroke-width:0.9375;stroke-linecap:round;stroke-linejoin:round;stroke-miterlimit:10;stroke-opacity:1;stroke-dasharray:none"
       d="m 301.21951,164.94359 -10.2687,0 m 10.2687,-8.42625 -10.2687,0 5.0062,8.1625 5.2625,-8.1625 z" />
    <text
       style="font-size:15px"
       id="text3111"
       x="250.2374"
       y="144.89124">
      <tspan
         id="tspan3113"
         y="144.89124"
         x="250.2374"
         style="font-size:8.72850037px;font-variant:normal;font-weight:normal;writing-mode:lr-tb;fill:#000000;fill-opacity:1;fill-rule:nonzero;stroke:none;font-family:Helvetica;-inkscape-font-specification:Helvetica">C</tspan>
      <tspan
         id="tspan3115"
         y="181.88959"
         x="300.99802"
         style="font-size:8.72850037px;font-variant:normal;font-weight:normal;writing-mode:lr-tb;fill:#000000;fill-opacity:1;fill-rule:nonzero;stroke:none;font-family:Helvetica;-inkscape-font-specification:Helvetica">C</tspan>
      <tspan
         id="tspan3117"
         y="144.89124"
         x="301.19614"
         style="font-size:8.72850037px;font-variant:normal;font-weight:normal;writing-mode:lr-tb;fill:#000000;fill-opacity:1;fill-rule:nonzero;stroke:none;font-family:Helvetica;-inkscape-font-specification:Helvetica">A</tspan>
      <tspan
         id="tspan3119"
         y="181.88959"
         x="250.63278"
         style="font-size:8.72850037px;font-variant:normal;font-weight:normal;writing-mode:lr-tb;fill:#000000;fill-opacity:1;fill-rule:nonzero;stroke:none;font-family:Helvetica;-inkscape-font-specification:Helvetica">E</tspan>
    </text>
    <text
       style="font-size:15px"
       id="text3121"
       x="253.63242"
       y="208.80783">
      <tspan
         id="tspan3123"
         sodipodi:role="line"
         y="208.80783"
         x="253.63242 258.97885 263.84409 268.70932"
         style="font-size:8.75037479px;font-variant:normal;font-weight:normal;writing-mode:lr-tb;fill:#000000;fill-opacity:1;fill-rule:nonzero;stroke:none;font-family:Helvetica;-inkscape-font-specification:Helvetica">Top</tspan>
    </text>
    <text
       style="font-size:15px"
       id="text3125"
       x="271.14194"
       y="208.80783">
      <tspan
         id="tspan3127"
         y="208.80783"
         x="271.14194"
         style="font-size:8.75037479px;font-variant:normal;font-weight:normal;writing-mode:lr-tb;fill:#000000;fill-opacity:1;fill-rule:nonzero;stroke:none;font-family:Helvetica;-inkscape-font-specification:Helvetica">v</tspan>
    </text>
    <text
       style="font-size:15px"
       id="text3129"
       x="275.51706"
       y="208.80783">
      <tspan
         id="tspan3131"
         sodipodi:role="line"
         y="208.80783"
         x="275.51706 277.45969"
         style="font-size:8.75037479px;font-variant:normal;font-weight:normal;writing-mode:lr-tb;fill:#000000;fill-opacity:1;fill-rule:nonzero;stroke:none;font-family:Helvetica;-inkscape-font-specification:Helvetica">ie</tspan>
    </text>
    <text
       style="font-size:15px"
       id="text3133"
       x="282.32492"
       y="208.80783">
      <tspan
         id="tspan3135"
         y="208.80783"
         x="282.32492"
         style="font-size:8.75037479px;font-variant:normal;font-weight:normal;writing-mode:lr-tb;fill:#000000;fill-opacity:1;fill-rule:nonzero;stroke:none;font-family:Helvetica;-inkscape-font-specification:Helvetica">w</tspan>
    </text>
    <text
       xml:space="preserve"
       style="font-size:20.63694763px;font-style:normal;font-weight:normal;fill:#000000;fill-opacity:1;stroke:none;font-family:Bitstream Vera Sans"
       x="211.25258"
       y="109.06713"
       id="text4605"><tspan
         sodipodi:role="line"
         id="tspan4607"
         x="211.25258"
         y="109.06713">TCRT5000</tspan></text>
    <rect
       style="fill:none;stroke:#000000"
       id="rect4609"
       width="48.080128"
       height="9.6160259"
       x="366.80499"
       y="135.05109" />
    <rect
       y="133.57169"
       x="129.36311"
       height="9.6160259"
       width="48.080128"
       id="rect4611"
       style="fill:none;stroke:#000000" />
    <path
       style="fill:#ff0000;stroke:#ff0000;stroke-width:1px;stroke-linecap:butt;stroke-linejoin:miter;stroke-opacity:1"
       d="m 176.70357,138.74957 68.05188,0"
       id="path4613" />
    <path
       id="path4615"
       d="m 297.27374,140.22896 68.05188,0"
       style="fill:#ff0000;stroke:#ff0000;stroke-width:1px;stroke-linecap:butt;stroke-linejoin:miter;stroke-opacity:1" />
    <path
       style="fill:none;stroke:#ff0000;stroke-width:1px;stroke-linecap:butt;stroke-linejoin:miter;stroke-opacity:1"
       d="m 414.88513,139.48926 42.90227,0 0,-76.928204 -378.723475,0 0,270.728104"
       id="path4617" />
    <path
       style="fill:none;stroke:#ff0000;stroke-width:1px;stroke-linecap:butt;stroke-linejoin:miter;stroke-opacity:1"
       d="m 78.324235,139.48926 50.299215,0"
       id="path4619" />
    <text
       xml:space="preserve"
       style="font-size:19.2302475px;font-style:normal;font-weight:normal;fill:#000000;fill-opacity:1;stroke:none;font-family:Bitstream Vera Sans"
       x="137.5416"
       y="161.4335"
       id="text4621"><tspan
         sodipodi:role="line"
         id="tspan4623"
         x="137.5416"
         y="161.4335">2k</tspan></text>
    <text
       id="text4625"
       y="160.69379"
       x="372.02466"
       style="font-size:19.2302475px;font-style:normal;font-weight:normal;fill:#000000;fill-opacity:1;stroke:none;font-family:Bitstream Vera Sans"
       xml:space="preserve"><tspan
         y="160.69379"
         x="372.02466"
         id="tspan4627"
         sodipodi:role="line">100</tspan></text>
    <path
       style="fill:none;stroke:#0000ff;stroke-width:1px;stroke-linecap:butt;stroke-linejoin:miter;stroke-opacity:1"
       d="m 296.53404,179.43275 -51.0389,0 -133.88466,0 0,153.85641"
       id="path4629" />
    <path
       style="fill:none;stroke:#ff00ff;stroke-width:1px;stroke-linecap:butt;stroke-linejoin:miter;stroke-opacity:1"
       d="m 193.71654,138.74957 0,198.97776"
       id="path4631" />
    <path
       transform="matrix(0.08738375,0,0,0.08738375,76.911102,109.11306)"
       d="m 43.272115,347.61847 a 10.170796,10.170796 0 1 1 -20.341593,0 10.170796,10.170796 0 1 1 20.341593,0 z"
       sodipodi:ry="10.170796"
       sodipodi:rx="10.170796"
       sodipodi:cy="347.61847"
       sodipodi:cx="33.101318"
       id="path4637"
       style="fill:#ff0000;stroke:#ff0000;stroke-width:52.20000076;stroke-miterlimit:4;stroke-dasharray:none"
       sodipodi:type="arc" />
    <path
       transform="matrix(0.08738375,0,0,0.08738375,192.30342,108.37337)"
       d="m 43.272115,347.61847 a 10.170796,10.170796 0 1 1 -20.341593,0 10.170796,10.170796 0 1 1 20.341593,0 z"
       sodipodi:ry="10.170796"
       sodipodi:rx="10.170796"
       sodipodi:cy="347.61847"
       sodipodi:cx="33.101318"
       id="path4641"
       style="fill:#ff0000;stroke:#ff0000;stroke-width:52.20000076;stroke-miterlimit:4;stroke-dasharray:none"
       sodipodi:type="arc" />
    <text
       xml:space="preserve"
       style="font-size:17.10738564px;font-style:normal;font-weight:normal;fill:#ff0000;fill-opacity:1;stroke:none;font-family:Bitstream Vera Sans"
       x="64.556786"
       y="355.80423"
       id="text4643"><tspan
         sodipodi:role="line"
         id="tspan4645"
         x="64.556786"
         y="355.80423">5V</tspan></text>
    <text
       id="text4647"
       y="355.06448"
       x="96.363647"
       style="font-size:17.10738564px;font-style:normal;font-weight:normal;fill:#0000ff;fill-opacity:1;stroke:none;font-family:Bitstream Vera Sans"
       xml:space="preserve"><tspan
         y="355.06448"
         x="96.363647"
         id="tspan4649"
         sodipodi:role="line">GND</tspan></text>
    <text
       xml:space="preserve"
       style="font-size:17.10738564px;font-style:normal;font-weight:normal;fill:#ff00ff;fill-opacity:1;stroke:none;font-family:Bitstream Vera Sans"
       x="167.3743"
       y="355.80417"
       id="text4651"><tspan
         sodipodi:role="line"
         id="tspan4653"
         x="167.3743"
         y="355.80417">Analog</tspan></text>
  </g>
</svg>
